<?xml version="1.0" standalone="no"?>
<!DOCTYPE svg PUBLIC "-//W3C//DTD SVG 20010904//EN"
 "http://www.w3.org/TR/2001/REC-SVG-20010904/DTD/svg10.dtd">
<svg version="1.0" xmlns="http://www.w3.org/2000/svg"
 width="83.000000pt" height="96.000000pt" viewBox="0 0 83.000000 96.000000"
 preserveAspectRatio="xMidYMid meet">

<g transform="translate(0.000000,96.000000) scale(0.100000,-0.100000)"
fill="#000000" stroke="none">
<path d="M462 849 c2 -7 12 -13 21 -15 23 -3 21 3 -4 17 -17 8 -20 8 -17 -2z"/>
<path d="M254 814 c-18 -14 -18 -14 6 -3 31 14 36 19 24 19 -6 0 -19 -7 -30
-16z"/>
<path d="M679 803 c23 -35 41 -50 41 -35 0 4 -14 21 -32 38 l-31 29 22 -32z"/>
<path d="M236 642 c-4 -15 -16 -41 -27 -57 -20 -28 -21 -24 -4 18 4 10 3 17
-4 17 -6 0 -11 -3 -11 -7 0 -5 -10 -19 -21 -33 l-20 -25 16 33 c9 18 26 37 38
43 19 8 17 9 -8 3 -34 -6 -37 -11 -55 -65 -15 -44 -6 -64 16 -35 8 11 14 14
14 8 0 -13 30 -17 30 -4 0 4 10 18 21 32 17 21 19 22 10 3 -18 -35 -14 -53 11
-50 12 2 24 10 26 17 3 9 6 9 12 1 12 -21 64 -19 81 2 16 20 17 20 28 -1 9
-18 17 -21 39 -16 15 4 24 3 20 -1 -9 -9 19 -65 32 -65 15 0 12 14 -9 36 -15
17 -16 23 -6 38 8 10 14 13 17 6 2 -6 22 -13 45 -15 37 -4 42 -2 47 21 5 20
10 23 26 14 15 -8 21 -6 29 7 6 10 10 14 11 8 0 -19 -18 -38 -29 -31 -6 4 -11
3 -11 -3 0 -5 5 -13 10 -16 6 -4 8 -11 4 -16 -3 -5 -10 -7 -15 -4 -5 4 -9 1
-9 -4 0 -23 28 -9 40 19 15 35 31 49 23 20 -3 -12 0 -20 6 -20 7 0 9 -5 6 -10
-4 -6 -11 -8 -16 -5 -5 4 -9 1 -9 -4 0 -29 32 -6 55 39 27 54 29 60 17 60 -4
0 -13 -14 -20 -32 -6 -17 -15 -29 -18 -25 -4 4 -1 13 6 22 7 9 10 19 6 22 -4
4 -11 1 -16 -7 -8 -13 -10 -12 -10 3 0 21 -8 22 -32 0 -12 -10 -18 -12 -18 -4
0 7 -4 10 -9 7 -5 -4 -11 -1 -13 6 -2 6 -14 -5 -26 -25 -22 -37 -42 -48 -42
-23 0 17 24 38 33 29 4 -3 7 -1 7 5 0 6 -4 13 -9 17 -10 5 -17 -1 -47 -40 -15
-20 -15 -20 -5 2 9 17 7 22 -6 28 -16 6 -43 -17 -43 -37 0 -4 -10 -8 -22 -8
-23 1 -23 1 -3 18 11 9 19 25 17 35 -2 12 4 20 17 24 24 6 29 23 7 23 -20 0
-40 -22 -56 -60 -9 -21 -16 -28 -23 -21 -8 8 -17 5 -30 -7 -19 -17 -20 -17 -3
16 15 29 19 32 34 20 15 -12 16 -11 4 4 -8 9 -11 22 -7 28 12 19 -7 10 -34
-18 -25 -24 -78 -41 -65 -20 12 20 -13 5 -34 -19 -20 -24 -22 -25 -12 -5 6 13
9 30 6 37 -3 9 0 12 10 8 7 -3 14 0 14 6 0 7 8 8 25 1 13 -5 27 -6 29 -1 5 8
-1 9 -47 12 -19 1 -23 6 -19 25 6 34 -15 30 -22 -4z m98 -86 c-3 -8 -14 -14
-24 -13 -10 1 -16 5 -14 9 3 5 9 6 14 3 5 -3 11 -1 15 5 9 15 15 12 9 -4z"/>
<path d="M71 624 c-20 -77 -24 -117 -12 -110 6 4 11 22 11 39 0 18 4 48 10 66
5 19 8 37 5 39 -2 2 -8 -13 -14 -34z"/>
<path d="M98 628 c-17 -30 -14 -160 5 -214 8 -23 37 -62 64 -88 l48 -48 -45 5
-45 5 50 -44 c53 -47 95 -71 144 -80 26 -5 31 -3 31 12 0 28 -9 37 -71 72
-134 76 -206 227 -170 356 12 47 8 57 -11 24z"/>
<path d="M148 643 c7 -3 16 -2 19 1 4 3 -2 6 -13 5 -11 0 -14 -3 -6 -6z"/>
<path d="M380 497 c0 -12 3 -32 6 -44 8 -28 33 -39 31 -13 -1 10 -5 16 -10 13
-5 -3 -6 8 -3 24 5 23 3 32 -8 36 -12 5 -16 0 -16 -16z"/>
<path d="M67 456 c-10 -25 23 -109 37 -95 3 2 -4 28 -13 57 -12 34 -21 48 -24
38z"/>
<path d="M306 443 c3 -10 -4 -35 -14 -55 -11 -21 -17 -39 -14 -42 6 -7 42 12
68 36 21 19 21 19 17 -6 -5 -22 -2 -26 18 -25 22 0 23 1 4 9 -11 5 -14 9 -7 9
7 1 11 5 7 10 -3 5 0 13 6 17 7 4 9 3 5 -4 -3 -6 -2 -13 4 -17 6 -4 10 5 10
21 0 20 -4 25 -18 22 -14 -4 -18 0 -18 16 1 17 -6 22 -36 24 -31 3 -36 0 -32
-15z m40 -32 c-8 -15 -22 -34 -31 -41 -13 -11 -11 -3 6 33 12 25 26 44 31 41
4 -3 1 -18 -6 -33z"/>
<path d="M475 440 c-3 -5 1 -10 10 -10 9 0 13 5 10 10 -3 6 -8 10 -10 10 -2 0
-7 -4 -10 -10z"/>
<path d="M425 410 c-3 -5 -3 -14 0 -20 3 -5 -5 -22 -19 -37 -20 -22 -26 -38
-26 -75 0 -42 3 -48 21 -48 19 0 21 5 17 60 -2 40 1 60 8 60 7 0 14 14 16 30
5 31 -5 49 -17 30z"/>
<path d="M456 404 c-9 -22 -7 -54 2 -54 4 0 8 8 8 18 1 9 4 25 9 35 4 10 3 17
-3 17 -5 0 -13 -7 -16 -16z"/>
<path d="M485 394 c-12 -19 -14 -29 -5 -39 7 -8 9 -19 5 -26 -6 -8 -10 -7 -17
2 -8 12 -9 11 -6 0 8 -28 25 -22 42 14 16 32 28 46 25 28 -3 -20 2 -24 16 -13
11 10 15 10 15 0 0 -23 23 -4 26 22 3 33 -25 47 -43 22 -12 -16 -13 -17 -13
-1 0 25 -25 20 -45 -9z m16 -21 c-8 -15 -10 -15 -11 -2 0 17 10 32 18 25 2 -3
-1 -13 -7 -23z"/>
<path d="M689 328 c-17 -24 -18 -29 -6 -19 18 14 42 51 33 51 -3 0 -15 -15
-27 -32z"/>
<path d="M556 307 c3 -10 9 -15 12 -12 3 3 0 11 -7 18 -10 9 -11 8 -5 -6z"/>
<path d="M657 268 c-30 -24 -41 -28 -50 -19 -7 7 -7 11 -2 9 6 -2 11 0 13 5 5
16 1 19 -12 8 -8 -7 -22 -14 -32 -16 -34 -8 -139 -44 -129 -44 5 -1 4 -6 -3
-13 -45 -45 39 -42 133 4 66 33 81 43 109 76 26 30 18 27 -27 -10z"/>
<path d="M380 105 c0 -27 1 -28 24 -19 24 9 20 44 -4 44 -15 0 -20 -7 -20 -25z"/>
</g>
</svg>
