<?xml version="1.0" standalone="no"?>
<!DOCTYPE svg PUBLIC "-//W3C//DTD SVG 20010904//EN"
 "http://www.w3.org/TR/2001/REC-SVG-20010904/DTD/svg10.dtd">
<svg version="1.0" xmlns="http://www.w3.org/2000/svg"
 width="410.000000pt" height="476.000000pt" viewBox="0 0 410.000000 476.000000"
 preserveAspectRatio="xMidYMid meet">

<g transform="translate(0.000000,476.000000) scale(0.100000,-0.100000)"
fill="#000000" stroke="none">
<path d="M2230 4271 c0 -5 -15 -8 -32 -8 -66 0 -88 -3 -88 -11 0 -13 107 -14
115 -2 13 22 24 8 35 -45 6 -30 15 -53 20 -50 5 3 12 0 15 -6 4 -5 14 -8 22
-5 9 4 22 -2 30 -11 8 -10 12 -13 9 -7 -3 7 6 15 21 19 15 3 22 9 16 13 -12 9
-38 54 -35 64 1 4 -21 10 -48 14 -28 4 -50 10 -50 14 0 11 42 20 70 14 22 -4
23 -3 5 5 -25 12 -105 14 -105 2z m70 -65 c0 -3 -4 -8 -10 -11 -5 -3 -10 -1
-10 4 0 6 5 11 10 11 6 0 10 -2 10 -4z"/>
<path d="M1475 4144 c-27 -8 -79 -28 -115 -46 -36 -18 -69 -33 -75 -34 -5 0
-17 -2 -25 -3 -12 -1 -12 -4 3 -12 9 -5 23 -7 30 -3 7 5 5 0 -3 -11 -18 -22
-23 -24 127 50 146 72 160 87 58 59z"/>
<path d="M3281 4098 c14 -13 31 -38 37 -55 22 -64 171 -220 216 -227 8 -1 26
-14 41 -30 31 -33 31 -30 3 25 -29 54 -207 236 -273 278 -37 24 -43 26 -24 9z"/>
<path d="M1178 3309 c-23 -9 -25 -14 -18 -38 24 -84 -89 -350 -199 -471 l-41
-45 26 74 c25 70 45 113 80 166 18 27 7 57 -27 76 -27 14 -43 0 -103 -98 -93
-150 -157 -245 -163 -240 -9 9 93 201 177 333 18 29 7 52 -32 68 -43 19 -68 7
-86 -40 -8 -21 -48 -123 -88 -225 -41 -102 -74 -194 -74 -205 0 -10 9 -34 20
-51 15 -25 27 -33 49 -33 27 0 35 8 72 73 64 111 102 166 95 137 -22 -84 -29
-129 -23 -143 8 -22 55 -40 84 -32 23 5 124 148 233 329 32 54 56 84 58 75 14
-41 72 -51 96 -17 21 29 20 51 -2 71 -22 20 -53 22 -71 5 -6 -7 0 14 15 47 65
142 31 224 -78 184z"/>
<path d="M665 3220 c-9 -28 -6 -30 59 -45 42 -10 65 -10 91 -2 25 7 42 7 60
-1 15 -7 25 -8 25 -2 0 6 7 10 16 10 10 0 14 -5 10 -15 -4 -12 -2 -13 13 -6
23 13 46 -6 30 -25 -8 -9 3 -16 45 -28 75 -22 81 -21 93 18 13 41 11 42 -79
51 -35 4 -70 9 -78 12 -26 10 -43 14 -90 19 -25 3 -52 8 -60 11 -21 8 -38 12
-86 19 -37 6 -43 4 -49 -16z"/>
<path d="M357 3156 c-20 -57 -33 -106 -71 -266 -13 -53 -27 -166 -30 -240 -2
-27 10 -65 20 -64 5 1 19 -2 32 -7 20 -8 22 -5 23 26 4 91 25 256 44 340 9 39
19 81 22 95 2 14 8 34 12 45 14 36 31 89 28 90 -68 25 -64 25 -80 -19z"/>
<path d="M2085 3170 c-4 -12 -5 -24 -2 -27 3 -2 8 5 12 17 4 12 5 24 2 27 -3
2 -8 -5 -12 -17z"/>
<path d="M465 3078 c-49 -126 -57 -177 -58 -373 0 -170 2 -195 19 -188 6 2 14
-9 17 -27 8 -38 -3 -121 -14 -114 -14 8 -11 -29 11 -129 20 -91 62 -225 80
-259 6 -10 10 -22 10 -27 0 -22 70 -158 82 -159 7 0 40 -8 72 -16 33 -8 63
-13 68 -10 4 3 8 0 8 -5 0 -6 4 -11 10 -11 5 0 -6 24 -25 54 -69 109 -181 370
-188 441 -3 22 -14 78 -27 125 -45 173 -32 455 30 675 24 85 24 85 -1 85 -13
0 -33 3 -44 6 -18 4 -25 -5 -50 -68z"/>
<path d="M2134 3138 c-4 -7 -20 -46 -34 -88 -14 -42 -61 -142 -103 -224 -42
-81 -77 -156 -77 -166 0 -20 55 -80 73 -80 7 0 32 6 57 14 25 7 69 17 97 21
45 6 56 4 79 -14 15 -12 31 -21 35 -21 5 0 22 26 38 58 16 31 44 71 61 87 l32
30 -8 -35 c-24 -101 17 -142 84 -85 l30 25 18 -28 c42 -64 94 -70 153 -17 35
32 39 33 44 16 6 -24 55 -57 66 -45 4 5 18 38 31 74 36 102 110 196 110 140 0
-25 15 -33 50 -25 25 6 30 11 30 38 0 18 9 40 22 54 17 19 20 28 12 41 -23 36
-54 27 -112 -35 -30 -32 -45 -44 -33 -26 12 18 26 35 31 38 15 9 12 51 -4 64
-20 17 -42 4 -81 -49 -35 -48 -115 -199 -115 -218 0 -31 -133 -59 -151 -31
-19 30 -5 52 42 63 88 23 149 89 149 163 0 49 -23 73 -73 73 -74 0 -167 -107
-184 -213 -5 -34 -33 -67 -55 -67 -22 0 11 85 53 139 11 13 19 31 19 41 0 20
-31 50 -52 50 -21 0 -105 -92 -157 -172 -24 -38 -45 -68 -48 -68 -12 0 65 125
108 176 27 32 49 64 49 71 0 7 -11 20 -25 29 -23 15 -27 15 -50 0 -45 -30
-110 -146 -141 -254 -3 -11 -7 -10 -20 2 -11 11 -35 16 -80 16 -73 0 -77 6
-39 62 20 29 34 38 75 47 28 6 57 11 64 11 26 0 40 28 28 55 -9 20 -19 25 -48
25 -34 0 -36 2 -30 25 3 13 25 49 47 79 l41 55 67 3 c64 3 66 4 69 31 6 50 -9
57 -129 57 -73 0 -110 -4 -115 -12z m56 -18 c0 -5 -5 -10 -11 -10 -5 0 -7 5
-4 10 3 6 8 10 11 10 2 0 4 -4 4 -10z m167 -36 c-9 -9 -28 6 -21 18 4 6 10 6
17 -1 6 -6 8 -13 4 -17z m343 -241 c0 -10 -7 -26 -15 -36 -19 -26 -76 -67 -92
-67 -21 0 9 51 52 89 40 35 55 39 55 14z"/>
<path d="M1834 3134 c-6 -3 -30 -49 -55 -104 -28 -65 -47 -96 -53 -90 -18 18
-64 10 -97 -17 -45 -39 -105 -134 -120 -193 -11 -44 -33 -69 -47 -55 -9 9 18
77 49 122 16 23 29 48 29 56 0 23 -36 50 -59 42 -28 -9 -113 -104 -156 -175
-39 -64 -50 -76 -35 -35 14 38 59 105 106 162 24 28 44 56 44 62 0 6 -11 18
-25 27 -23 15 -27 15 -49 0 -29 -19 -75 -83 -105 -147 -12 -26 -43 -68 -69
-95 -70 -73 -65 -38 13 111 37 69 64 132 61 140 -7 18 -66 20 -88 3 -9 -7 -18
-24 -21 -38 -3 -14 -21 -63 -41 -110 -39 -92 -45 -152 -20 -188 22 -32 47 -27
88 15 32 33 36 35 36 16 0 -19 42 -63 60 -63 4 0 19 24 33 53 25 50 97 132 97
110 0 -5 -5 -24 -11 -42 -23 -66 13 -106 69 -77 26 13 29 13 40 -5 18 -28 56
-23 95 11 19 17 37 30 40 30 2 0 7 -13 10 -29 7 -35 33 -46 63 -26 29 19 184
232 184 253 0 20 -2 19 -104 -105 -42 -51 -81 -93 -87 -93 -29 0 44 165 147
330 30 49 54 93 54 99 0 29 -47 57 -76 45z m-134 -280 c0 -3 -16 -37 -37 -76
-55 -105 -113 -160 -113 -105 1 51 70 159 114 177 26 11 36 12 36 4z"/>
<path d="M2066 3108 c-8 -31 -8 -43 1 -34 8 8 16 56 10 56 -3 0 -7 -10 -11
-22z"/>
<path d="M1340 3106 c19 -8 47 -15 62 -15 32 -1 39 -10 32 -39 -5 -19 -17 -21
-49 -10 -5 1 -11 -1 -13 -7 -3 -9 55 -28 123 -40 17 -2 53 -11 80 -18 47 -13
53 -12 107 12 32 14 58 32 58 38 0 13 -6 15 -111 36 -62 12 -65 12 -65 -7 1
-10 -5 -21 -11 -23 -18 -6 -29 27 -13 37 11 7 -116 35 -205 46 -29 3 -29 3 5
-10z m170 -50 c0 -22 -20 -30 -20 -9 -1 17 -2 17 -15 -1 -16 -21 -19 -18 -9 8
8 20 44 21 44 2z m148 -41 c-12 -27 -48 -34 -48 -10 0 9 10 20 23 25 34 14 37
12 25 -15z m32 -5 c0 -5 -2 -10 -4 -10 -3 0 -8 5 -11 10 -3 6 -1 10 4 10 6 0
11 -4 11 -10z"/>
<path d="M1400 3059 c0 -5 5 -7 10 -4 6 3 10 8 10 11 0 2 -4 4 -10 4 -5 0 -10
-5 -10 -11z"/>
<path d="M2046 3044 c-4 -9 -4 -19 -1 -22 2 -3 7 3 11 12 4 9 4 19 1 22 -2 3
-7 -3 -11 -12z"/>
<path d="M2265 2990 c3 -5 8 -10 11 -10 2 0 4 5 4 10 0 6 -5 10 -11 10 -5 0
-7 -4 -4 -10z"/>
<path d="M1890 2935 c0 -22 31 -51 42 -40 3 3 4 -10 4 -28 -1 -19 -15 -52 -35
-81 l-34 -49 2 -221 c2 -204 4 -223 23 -254 17 -28 20 -45 15 -98 -4 -59 -3
-63 14 -54 34 19 86 11 120 -17 l32 -28 -6 64 c-4 35 -7 146 -7 247 l0 184
-30 -6 c-43 -9 -76 2 -110 38 -47 49 -47 67 0 160 24 46 47 88 52 95 15 19
-30 93 -64 106 -14 5 -18 1 -18 -18z m130 -700 c0 -8 -7 -15 -15 -15 -16 0
-20 12 -8 23 11 12 23 8 23 -8z"/>
<path d="M3122 2931 c-74 -54 -142 -180 -142 -264 0 -50 13 -67 52 -67 15 0
28 -2 28 -5 0 -3 -14 -32 -30 -65 -22 -43 -36 -60 -50 -60 -19 0 -24 10 -32
63 -3 18 -5 18 -30 -3 -50 -39 -26 -105 43 -116 57 -9 97 34 168 180 33 66 75
147 93 179 32 56 33 58 14 72 -41 31 -59 19 -98 -63 -55 -116 -118 -176 -104
-96 20 104 110 193 183 181 29 -5 36 -2 45 18 9 19 7 29 -6 50 -24 36 -80 35
-134 -4z"/>
<path d="M3459 2913 c-12 -27 -32 -76 -46 -110 -26 -66 -89 -143 -117 -143
-25 0 -14 28 56 133 71 108 72 131 10 135 l-43 3 -23 -53 c-37 -85 -67 -183
-69 -228 -3 -59 17 -70 72 -42 37 19 41 20 33 5 -5 -10 -22 -44 -37 -76 -22
-47 -32 -57 -49 -55 -16 2 -22 11 -24 36 -4 37 -14 40 -42 12 -25 -25 -26 -72
-2 -93 52 -47 129 -18 169 63 13 25 47 95 76 155 29 61 72 141 95 179 23 37
42 74 42 81 0 22 -29 45 -56 45 -20 0 -29 -9 -45 -47z"/>
<path d="M2258 2943 c-10 -2 -18 -9 -18 -14 0 -14 16 -11 30 6 7 8 11 14 9 14
-2 -1 -12 -3 -21 -6z"/>
<path d="M1826 2873 c-6 -14 -5 -15 5 -6 7 7 10 15 7 18 -3 3 -9 -2 -12 -12z"/>
<path d="M1803 2835 c-9 -24 1 -27 15 -5 8 13 8 20 2 20 -6 0 -13 -7 -17 -15z"/>
<path d="M2313 2573 c1 -13 5 -23 10 -23 5 0 7 -7 3 -15 -3 -9 4 -25 15 -36
11 -11 19 -27 17 -35 -4 -21 -23 -18 -24 4 -2 33 -5 37 -14 17 -7 -18 -9 -17
-15 11 l-7 31 -34 -34 c-39 -38 -40 -43 -18 -84 12 -24 18 -28 28 -19 11 8 15
5 20 -15 4 -14 11 -25 17 -25 6 0 8 7 5 15 -3 8 -9 22 -12 30 -4 10 0 15 10
15 9 0 16 6 16 13 0 11 22 15 48 8 8 -2 -28 -31 -37 -31 -14 0 -14 -27 -1 -35
6 -3 10 2 10 11 0 10 3 15 6 11 3 -3 3 -15 -1 -26 -8 -26 -52 -28 -72 -3 -8
10 -7 3 4 -20 9 -21 21 -38 25 -38 5 0 7 4 4 8 -3 4 8 13 24 19 28 10 28 10
18 -13 -6 -13 -17 -24 -25 -26 -12 -3 -11 -6 2 -23 12 -16 14 -17 9 -2 -3 9
-1 17 5 17 6 0 11 -6 11 -13 0 -9 10 -12 30 -9 17 2 38 -2 48 -9 15 -12 15
-12 6 1 -7 8 -11 27 -9 43 2 15 -1 27 -6 27 -5 0 -9 -5 -9 -12 0 -6 -3 -8 -6
-5 -4 4 -1 14 6 22 10 12 10 19 2 27 -7 7 -12 19 -12 28 0 8 -22 60 -49 115
-27 55 -49 90 -48 78z m7 -140 c0 -7 -3 -12 -7 -11 -5 1 -18 -3 -30 -10 -13
-7 -23 -10 -23 -7 0 14 -2 21 -11 31 -13 16 0 44 17 37 8 -3 14 1 14 8 0 17
39 -31 40 -48z m78 -74 c-2 -6 -8 -10 -13 -10 -5 0 -11 4 -13 10 -2 6 4 11 13
11 9 0 15 -5 13 -11z m-4 -62 c-8 -21 -24 -22 -24 -2 0 8 5 15 11 15 5 0 7 6
3 13 -5 9 -4 9 5 1 6 -6 9 -18 5 -27z"/>
<path d="M2185 2570 c3 -5 8 -10 11 -10 2 0 4 5 4 10 0 6 -5 10 -11 10 -5 0
-7 -4 -4 -10z"/>
<path d="M2185 2526 c19 -48 21 -50 34 -41 17 10 13 25 -4 19 -9 -4 -15 0 -15
8 0 8 -7 23 -15 34 -14 17 -14 14 0 -20z"/>
<path d="M1562 2288 c-31 -6 -56 -16 -59 -25 -9 -24 14 -63 38 -63 13 0 19 -5
16 -12 -95 -239 -114 -281 -174 -380 -19 -32 -31 -62 -28 -68 3 -6 19 -17 35
-25 26 -14 30 -13 42 3 7 11 32 22 56 26 168 26 371 249 389 428 5 47 2 56
-20 80 -13 14 -42 31 -63 37 -46 13 -158 12 -232 -1z m177 -87 c45 -28 -20
-198 -114 -299 -48 -53 -116 -102 -140 -102 -3 0 41 92 97 205 106 211 115
222 157 196z"/>
<path d="M389 2255 c-2 -16 -3 -38 -2 -47 0 -10 -3 -18 -7 -18 -8 0 -12 -31
-15 -140 -2 -97 11 -150 38 -150 7 0 17 -10 22 -22 13 -28 64 -46 77 -27 7 11
8 10 6 -5 -2 -10 4 -20 12 -21 8 -2 23 -6 33 -10 20 -8 23 8 3 24 -16 13 -75
140 -86 185 -5 17 -18 56 -29 86 -12 30 -21 64 -21 75 0 11 -7 38 -15 60 -14
40 -14 40 -16 10z"/>
<path d="M2360 2208 c-29 -32 -26 -64 10 -83 37 -19 35 -19 60 7 26 29 26 63
-2 82 -30 21 -43 20 -68 -6z"/>
<path d="M2484 2187 c6 -20 -14 -66 -38 -86 -9 -8 -16 -20 -16 -27 0 -12 4
-12 20 -2 11 7 20 18 20 24 0 7 17 15 37 19 32 6 35 9 22 18 -9 7 -24 26 -33
42 -10 17 -15 22 -12 12z m11 -57 c3 -5 1 -10 -4 -10 -6 0 -11 5 -11 10 0 6 2
10 4 10 3 0 8 -4 11 -10z"/>
<path d="M2310 2091 c-17 -5 -25 -14 -26 -31 -1 -14 -19 -63 -39 -109 -55
-123 -56 -192 -2 -225 15 -9 25 -4 62 36 35 36 45 43 45 27 0 -29 38 -62 65
-57 l23 5 -24 -56 c-32 -73 -48 -89 -68 -71 -9 7 -16 25 -16 41 0 18 -5 29
-13 29 -23 0 -47 -35 -47 -68 0 -62 83 -84 140 -36 19 17 58 79 100 163 38 75
82 158 97 184 30 54 24 67 -33 67 -27 0 -32 -5 -42 -38 -15 -48 -84 -157 -106
-165 -47 -18 7 128 68 181 37 32 43 35 106 36 32 1 35 4 38 32 6 61 -46 81
-117 44 -46 -23 -78 -59 -130 -148 -41 -70 -116 -151 -128 -139 -4 4 23 66 60
137 37 71 67 136 67 144 0 24 -31 31 -80 17z"/>
<path d="M1925 2076 c-101 -44 -176 -218 -131 -304 20 -38 67 -65 100 -56 25
6 96 60 96 74 0 4 -17 2 -37 -6 -72 -25 -113 -14 -113 31 0 16 10 24 47 34 88
23 153 92 153 164 0 66 -48 93 -115 63z m55 -105 c0 -11 -18 -35 -41 -54 -39
-34 -79 -53 -79 -38 0 13 68 99 82 104 26 11 38 7 38 -12z"/>
<path d="M2123 2083 c-7 -3 -13 -13 -13 -23 0 -22 -23 -76 -50 -115 -11 -16
-20 -33 -20 -37 0 -16 22 -7 41 15 l18 22 1 -51 c0 -29 -6 -58 -15 -70 -13
-18 -15 -16 -37 34 -24 56 -32 62 -47 33 -18 -32 28 -141 65 -155 75 -29 117
33 116 171 -1 66 2 86 18 106 15 19 17 27 7 35 -24 19 -72 39 -84 35z"/>
<path d="M2705 2039 c-46 -51 -106 -175 -112 -233 -4 -35 -1 -48 16 -65 32
-32 46 -26 81 35 32 58 77 110 86 101 3 -3 0 -23 -6 -45 -16 -51 -1 -82 39
-82 32 0 91 48 91 74 0 20 -14 21 -30 1 -14 -17 -40 -20 -40 -5 0 16 23 63 52
107 35 52 35 78 3 99 -25 16 -27 16 -63 -13 -20 -17 -67 -74 -104 -128 -38
-54 -68 -94 -68 -88 0 17 74 132 118 182 44 52 50 69 30 89 -23 23 -55 13 -93
-29z"/>
<path d="M1915 1819 c-22 -11 -32 -17 -22 -14 10 3 24 5 31 5 7 0 21 7 32 15
27 20 7 17 -41 -6z"/>
<path d="M3531 1774 c-27 -39 -45 -44 -39 -11 3 15 0 24 -9 24 -7 0 -13 -6
-13 -12 0 -7 -7 -18 -15 -25 -9 -7 -13 -20 -10 -28 6 -17 -56 -125 -112 -192
-20 -25 -31 -39 -23 -32 8 6 18 12 23 12 4 0 5 -6 0 -12 -15 -25 53 38 115
106 35 38 76 94 92 126 33 65 27 97 -9 44z"/>
<path d="M1965 1720 c-11 -12 -20 -25 -20 -29 0 -3 -7 -5 -15 -4 -11 1 -16 -6
-15 -25 0 -21 -5 -27 -21 -26 -21 0 -21 -2 -22 -242 0 -280 -15 -250 130 -260
l86 -7 -3 94 c-2 52 -4 176 -5 277 l-1 182 -27 26 c-15 13 -35 23 -44 20 -9
-2 -18 0 -20 6 -2 5 -12 0 -23 -12z m35 -30 c0 -5 -7 -10 -15 -10 -8 0 -15 5
-15 10 0 6 7 10 15 10 8 0 15 -4 15 -10z m-105 -119 c3 -5 1 -12 -5 -16 -5 -3
-10 1 -10 9 0 18 6 21 15 7z"/>
<path d="M2699 1725 c-1 -11 -1 -27 0 -35 1 -11 0 -12 -7 -3 -6 10 -12 10 -28
-2 -18 -14 -18 -14 4 -15 19 0 22 -5 19 -27 -4 -32 20 -92 52 -129 13 -14 20
-28 17 -31 -3 -3 11 -37 30 -76 24 -47 38 -66 44 -57 4 7 12 10 17 7 16 -10 3
82 -17 127 -10 23 -19 34 -19 26 -1 -8 5 -27 12 -41 19 -35 20 -89 2 -89 -9 0
-12 6 -8 17 4 11 3 14 -5 9 -11 -7 -17 6 -13 27 1 5 -3 6 -8 3 -5 -4 -12 2
-14 11 -8 28 -2 64 12 73 18 10 6 45 -26 74 -17 16 -24 31 -21 43 3 11 -5 39
-18 64 -17 32 -24 38 -25 24z"/>
<path d="M3190 1526 c0 -2 7 -7 16 -10 8 -3 12 -2 9 4 -6 10 -25 14 -25 6z"/>
<path d="M3414 1478 c-16 -18 -21 -26 -11 -19 9 8 20 11 24 8 9 -9 33 12 33
29 0 22 -14 16 -46 -18z"/>
<path d="M2780 1471 c0 -5 7 -11 15 -15 9 -3 15 0 15 9 0 8 -7 15 -15 15 -8 0
-15 -4 -15 -9z"/>
<path d="M655 1405 c42 -60 77 -95 93 -95 9 0 12 -6 8 -15 -4 -10 2 -19 17
-24 12 -5 38 -26 57 -46 54 -57 165 -145 183 -145 9 0 19 -9 22 -21 4 -11 9
-18 13 -15 3 3 12 -3 19 -14 17 -24 61 -53 148 -97 145 -75 217 -104 327 -133
125 -32 142 -35 134 -21 -3 5 1 11 9 14 8 4 23 24 34 45 22 43 20 101 -4 138
-18 28 -87 94 -99 94 -9 0 -35 30 -36 42 0 4 7 5 15 2 8 -4 15 -4 15 -1 0 3
-29 15 -64 27 -36 12 -76 30 -90 41 -13 10 -29 19 -35 19 -6 0 -11 6 -11 13 0
12 -128 89 -156 93 -9 1 -24 10 -33 18 -10 9 -22 16 -27 16 -5 0 -21 11 -36
25 -15 14 -31 25 -37 25 -5 0 -11 5 -13 10 -2 6 -14 7 -33 2 -45 -13 -335 -8
-369 6 -25 11 -28 11 -22 -5 5 -12 -4 -8 -25 12 l-33 30 29 -40z m724 -529
c10 -12 8 -13 -8 -9 -12 3 -21 9 -21 14 0 14 16 11 29 -5z"/>
<path d="M3310 1279 c0 -5 5 -7 10 -4 6 3 10 8 10 11 0 2 -4 4 -10 4 -5 0 -10
-5 -10 -11z"/>
<path d="M2786 1268 c4 -7 3 -8 -4 -4 -11 7 -152 -59 -163 -76 -4 -5 -19 -8
-35 -7 -16 2 -34 0 -41 -4 -19 -12 -203 -67 -247 -74 -28 -4 -35 -8 -23 -12
15 -5 7 -17 -43 -60 -78 -68 -93 -98 -86 -165 7 -72 8 -76 17 -76 4 0 10 6 13
13 3 9 9 7 19 -6 11 -14 25 -17 54 -14 l38 4 -37 1 c-42 2 -51 17 -15 26 38 9
200 26 206 21 10 -11 -13 -20 -77 -31 -37 -7 -55 -13 -39 -13 34 -1 216 37
237 50 13 8 13 9 0 7 -8 -2 -17 1 -20 6 -6 11 152 66 188 66 28 0 82 27 82 40
0 6 6 10 14 10 8 0 21 8 28 18 13 18 34 31 118 71 25 11 52 25 60 29 8 5 44
24 80 43 58 30 180 114 180 125 0 2 -11 3 -25 2 -14 -1 -25 -6 -25 -10 0 -4
-7 -4 -17 -1 -9 4 -14 2 -10 -3 4 -6 -5 -9 -22 -6 -16 2 -39 -2 -52 -9 -22
-11 -23 -11 -10 4 22 27 -3 20 -29 -8 -25 -27 -50 -33 -50 -12 0 7 -18 13 -48
15 -26 2 -65 7 -86 12 -22 5 -52 6 -68 3 -26 -5 -34 2 -29 30 0 4 -8 7 -20 7
-13 0 -18 -4 -13 -12z"/>
<path d="M3120 1059 c-22 -18 -22 -19 -3 -10 12 6 25 16 28 21 9 15 3 12 -25
-11z"/>
<path d="M3035 1020 c-3 -6 1 -7 9 -4 18 7 21 14 7 14 -6 0 -13 -4 -16 -10z"/>
<path d="M2763 810 c-34 -14 -28 -21 7 -9 17 6 30 13 30 15 0 6 -12 4 -37 -6z"/>
<path d="M2163 753 c8 -7 77 -6 85 2 3 3 -16 5 -43 5 -27 0 -45 -3 -42 -7z"/>
<path d="M2298 753 c12 -2 30 -2 40 0 9 3 -1 5 -23 4 -22 0 -30 -2 -17 -4z"/>
<path d="M1877 673 c-4 -3 -7 -73 -7 -155 l0 -149 23 12 c12 7 24 11 27 10 3
-1 25 5 50 14 25 9 64 23 88 32 l43 15 -2 110 c-1 108 -2 110 -23 102 -31 -10
-127 -5 -172 9 -11 4 -23 4 -27 0z m209 -187 c-3 -14 -10 -26 -16 -26 -13 0
-17 52 -5 73 9 16 11 16 19 -2 5 -11 6 -31 2 -45z"/>
</g>
</svg>
